<svg class="svg-icon" style="width: 1em;height: 1em;vertical-align: middle;fill: currentColor;overflow: hidden;" viewBox="0 0 1024 1024" version="1.1" xmlns="http://www.w3.org/2000/svg"><path d="M519.547 182.565c-198 0-358.4 160.4-358.4 358.4s160.5 358.4 358.4 358.4c95.9-1.5 187-42.2 252.2-112.6 65.6-65.3 103.6-153.3 106.2-245.8-2.7-92.5-40.7-180.5-106.2-245.8-65.2-70.4-156.3-111.1-252.2-112.6m0-102.4c250.9 8.4 452.4 209.8 460.8 460.8-8.4 250.9-209.9 452.4-460.8 460.8-254.5 0-460.8-206.3-460.8-460.8s206.3-460.8 460.8-460.8z"  /><path d="M105.95 931.978c-42-5.2-77.4-33.8-91.3-73.7-20.6-62.4 17.4-151.1 129.7-199.9l2.1 4.7 10.2-8.3 28.4 97.5c-31.1 10.7-56.8 33.1-71.6 62.5-1.7 3.6-2.2 7.6-1.6 11.5 1.4 2.1 18 11.1 60.7 1.2 156.8-55.1 304.6-133 438.8-231.1 194.7-138.1 300.9-270.8 292.1-364.8-0.8-2.4-2.1-3.5-7.6-4.8-35-3-69.7 8.5-96 31.8l-79.6-64.5c50.9-54.3 125.6-79.5 199-67.3 42.6 8.8 75.8 42.1 84.6 84.7l0.5 2.5 0.3 2.6c9.2 77.2-22.9 161.3-95.5 250.1-69.7 81.3-150 152.9-238.6 213.2-144.8 106.2-304.9 189.7-474.9 247.5-29.3 7.6-59.8 9.1-89.7 4.6z"  /><path d="M482.271 300.979c43.3 1.3 78.1 36 79.4 79.3-1.3 43.3-36.1 78.1-79.4 79.4-43.8 0-79.4-35.5-79.4-79.4s35.6-79.3 79.4-79.3zM332.224 505.268c29.7 0.9 53.6 24.8 54.5 54.5-0.9 29.7-24.8 53.6-54.5 54.5-30.1 0-54.5-24.4-54.5-54.5s24.4-54.5 54.5-54.5z"  /></svg>